# xmcd
#
# Track frame offsets:
# 182
# 14652
# 39600
# 59712
# 77567
#
# Disc length: 1511 seconds
#
# Revision: 0
# Processed by: cddbd v1.5.2PL0 Copyright (c) Steve Scherf et al.
# Submitted via: Audion 3.0.2 (http://www.panic.com/audion/)
#
DISCID=3e05e505
DTITLE=Bach - Piano S. Francois
DYEAR=1900
DGENRE=
TTITLE0=01 P&F 543-1 Prélude (S. François piano)
TTITLE1=02 P&F 543-2 Fugue (S. François piano).m4a
TTITLE2=
TTITLE3=
TTITLE4=
EXTD=
EXTT0=
EXTT1=
EXTT2=
EXTT3=
EXTT4=
PLAYORDER=
